<?xml version="1.0" encoding="utf-8"?>
<!-- Generator: Adobe Illustrator 16.0.0, SVG Export Plug-In . SVG Version: 6.00 Build 0)  -->
<!DOCTYPE svg PUBLIC "-//W3C//DTD SVG 1.1//EN" "http://www.w3.org/Graphics/SVG/1.1/DTD/svg11.dtd">
<svg version="1.1" id="Layer_3" xmlns="http://www.w3.org/2000/svg" xmlns:xlink="http://www.w3.org/1999/xlink" x="0px" y="0px"
	 width="126px" height="126px" viewBox="0 0 126 126" enable-background="new 0 0 126 126" xml:space="preserve">
<g id="entry">
	<circle cx="81.995" cy="14.169" r="12.692"/>
	<path d="M90.186,29.595c-0.435-0.266-0.897-0.434-1.369-0.553c-1.154-0.646-2.397-1.133-3.658-1.442l-3.162,3.183l-3.066-3.219
		c-0.011,0.002-0.021,0.003-0.03,0.006c-1.617,0.388-3.205,1.071-4.619,2.004c-0.268,0.105-0.53,0.223-0.783,0.378
		c-9.628,5.906-15.277,18.136-22.429,33.621c-0.837,1.809-0.479,3.861,0.742,5.281c-3.885,3.389-13.509-2.244-14.314-2.442
		l-2.021,2.034l-1.959-2.058c-0.007,0.002-0.015,0.004-0.021,0.006c-1.377,0.329-5.197,2.861-6.551,3.665
		c-0.128,0.05-0.256,0.098-0.379,0.167c-0.286,0.164-7.022,4.136-7.022,15.771c0,1.593,1.291,2.884,2.884,2.884
		s2.884-1.291,2.884-2.884c0-3.845,0.899-6.437,1.863-8.121v13.491c0,0.847,0.163,1.638,0.452,2.364
		c-0.022,0.164-0.038,0.329-0.038,0.498l0.004,26.572c0,2.056,1.666,3.723,3.721,3.722c2.056,0,3.721-1.666,3.721-3.722
		l-0.002-22.296c0.149,0.007,0.297,0.018,0.444,0.018c0.028,0,0.058-0.002,0.087-0.003l-0.001,22.282
		c0,2.056,1.666,3.722,3.721,3.722c2.057,0,3.723-1.666,3.723-3.722l0.001-26.388c0.487-0.903,0.772-1.925,0.772-3.047V76.573
		c1.166,0.427,2.405,0.698,3.728,0.698c2.761,0,5.885-1.184,9.485-4.623c0.759-0.727,1.07-1.742,0.935-2.71
		c0.886-0.49,1.634-1.244,2.089-2.234c3.193-6.913,6.056-13.103,8.99-18.125V66.65c0,1.326,0.258,2.563,0.707,3.7
		c-0.033,0.256-0.058,0.515-0.058,0.78l0.004,47.188c0,3.217,2.607,5.824,5.823,5.823c3.217,0,5.824-2.607,5.823-5.823L81.302,77.82
		c0.231,0.01,0.462,0.029,0.694,0.029c0.045,0,0.09-0.004,0.134-0.004v40.473c0,3.216,2.607,5.823,5.824,5.823
		c0.001,0,0.001,0,0.001,0c3.215,0,5.822-2.607,5.822-5.823l0.002-46.898c0.764-1.415,1.208-3.015,1.208-4.77V48.758
		c1.457,3.854,2.046,9.026,1.309,16.391c-0.271,2.708,1.705,5.122,4.413,5.394c0.167,0.016,0.33,0.023,0.496,0.023
		c2.5,0,4.643-1.896,4.898-4.437C108.32,43.961,99.763,35.469,90.186,29.595z"/>
	<circle cx="35.476" cy="57.829" r="8.111"/>
</g>
</svg>
