<?xml version="1.0" encoding="utf-8"?>
<!-- Generator: Adobe Illustrator 16.0.0, SVG Export Plug-In . SVG Version: 6.00 Build 0)  -->
<!DOCTYPE svg PUBLIC "-//W3C//DTD SVG 1.1//EN" "http://www.w3.org/Graphics/SVG/1.1/DTD/svg11.dtd">
<svg version="1.1" id="Layer_1" xmlns="http://www.w3.org/2000/svg" xmlns:xlink="http://www.w3.org/1999/xlink" x="0px" y="0px"
	 width="126px" height="126px" viewBox="0 0 126 126" enable-background="new 0 0 126 126" xml:space="preserve">
<g id="entry">
<path d="M55.511,85.935c0.502,2.792,1.62,5.374,3.213,7.595L36.8,93.613c-13.372,0-24.214-10.842-24.214-24.214
	c0-12.685,9.761-23.074,22.18-24.11c3.573-8.915,12.276-15.218,22.468-15.218c10.749,0,19.85,7.012,23.012,16.706
	c1.397-0.25,2.828-0.403,4.297-0.403c11.965,0,21.877,8.687,23.839,20.09c-2.2-1.08-4.636-1.75-7.214-1.889
	c-3.346-5.497-9.346-8.972-15.998-8.972c-4.014,0-7.783,1.261-10.887,3.476c-3.143-4.097-8.073-6.751-13.637-6.751
	c-9.496,0-17.193,7.699-17.193,17.195C43.452,77.229,48.522,83.752,55.511,85.935z M100.129,70.009
	c-0.808,0-1.593,0.084-2.358,0.222c-1.735-5.319-6.729-9.167-12.627-9.167c-3.119,0-5.983,1.078-8.246,2.879
	c0.6,1.751,0.942,3.623,0.942,5.579c0,9.282-7.362,16.828-16.565,17.162c1.712,5.36,6.73,9.245,12.657,9.245l26.197-0.098
	c7.337,0,13.285-5.199,13.285-12.536C113.414,75.958,107.466,70.009,100.129,70.009z M54.112,64.393
	c1.208,0,2.035,0.278,2.565,0.579l0.502-1.709c-0.603-0.302-1.759-0.629-3.067-0.629c-3.975,0-6.538,2.716-6.538,6.464
	c0,3.722,2.388,6.211,6.061,6.211c1.634,0,2.918-0.401,3.496-0.704l-0.377-1.659c-0.63,0.276-1.46,0.603-2.717,0.603
	c-2.413,0-4.226-1.736-4.226-4.552C49.812,66.458,51.32,64.393,54.112,64.393z M56.285,69.072c0-4.074,2.665-6.463,6.036-6.463
	c3.496,0,5.858,2.539,5.858,6.263c0,4.5-3.118,6.462-6.059,6.462C58.826,75.334,56.285,72.919,56.285,69.072z M58.522,68.996
	c0,2.667,1.535,4.678,3.698,4.678c2.112,0,3.696-1.986,3.696-4.728c0-2.063-1.031-4.678-3.646-4.678S58.522,66.683,58.522,68.996z
	 M69.698,73.574l-0.847,0.821v0.663h5.089v-0.895h-3.579v-0.025l0.638-0.588c1.681-1.619,2.746-2.808,2.746-4.278
	c0-1.141-0.725-2.318-2.44-2.318c-0.919,0-1.704,0.342-2.255,0.808l0.342,0.761c0.367-0.306,0.97-0.674,1.692-0.674
	c1.19,0,1.58,0.748,1.58,1.557C72.653,70.606,71.733,71.637,69.698,73.574z"/></g>
</svg>
