<?xml version="1.0" encoding="utf-8"?>
<!-- Generator: Adobe Illustrator 16.0.0, SVG Export Plug-In . SVG Version: 6.00 Build 0)  -->
<!DOCTYPE svg PUBLIC "-//W3C//DTD SVG 1.1//EN" "http://www.w3.org/Graphics/SVG/1.1/DTD/svg11.dtd">
<svg version="1.1" id="Layer_1" xmlns="http://www.w3.org/2000/svg" xmlns:xlink="http://www.w3.org/1999/xlink" x="0px" y="0px"
	 width="58.437px" height="62.918px" viewBox="0 0 58.437 62.918" enable-background="new 0 0 58.437 62.918" xml:space="preserve">
<g>
	<g>
		<path fill="#1DB0E6" d="M58.409,30.031c0.197,15.797-12.447,28.768-28.25,28.965C14.36,59.195,1.391,46.552,1.193,30.751
			C0.995,14.955,13.639,1.988,29.438,1.783C45.239,1.589,58.209,14.232,58.409,30.031z"/>
		<g>
			<path fill="#FFFFFF" d="M32.276,46.015l0.006,2.312l-3.617,0.049l-0.006-2.238c-6.098-0.377-11.186-3.389-11.246-8.18
				c-0.037-2.607,1.963-4.443,4.443-4.471c2.059-0.027,3.723,1.34,3.744,3.229c0.023,1.771-0.936,2.494-2.32,2.973
				c0.566,1.725,2.473,2.707,5.34,2.877l-0.127-9.625l-1.77-0.361c-5.732-1.141-9.012-4.131-9.074-9.012
				c-0.063-5.674,4.725-9.145,10.607-9.725l-0.029-2.055l3.617-0.051l0.029,2.059c6.647,0.428,10.516,3.488,10.566,7.316
				c0.033,2.982-1.504,4.521-4.111,4.553c-2.482,0.029-3.846-1.383-3.871-3.273c-0.02-1.473,0.645-2.324,2.072-3.016
				c-0.564-1.086-2.004-2.033-4.617-2.295c0,0,0.113,9.25,0.121,9.295l1.723,0.355c6.451,1.348,9.646,4.129,9.699,8.623
				C43.54,41.958,39.081,45.38,32.276,46.015z M28.297,17.169c-3.066,0.545-4.721,2.5-4.703,4.393
				c0.031,2.354,1.646,3.344,4.812,4.102L28.297,17.169z M32.122,33.611l0.115,8.785c2.975-0.377,4.852-1.787,4.816-4.686
				C37.024,35.355,35.372,34.365,32.122,33.611z"/>
		</g>
		<g>
			<path fill="#2E368F" d="M30.434,54.833c-13.625,0.17-24.852-10.773-25.025-24.4C5.235,16.808,16.182,5.582,29.809,5.412
				c13.625-0.17,24.846,10.773,25.023,24.395C55,43.441,44.059,54.662,30.434,54.833z M29.817,6.585
				C16.848,6.748,6.415,17.441,6.578,30.419C6.743,43.4,17.444,53.826,30.417,53.662c12.977-0.164,23.406-10.857,23.237-23.836
				C53.499,16.847,42.803,6.421,29.817,6.585z"/>
		</g>
	</g>
</g>
</svg>
