<?xml version="1.0" encoding="utf-8"?>
<!-- Generator: Adobe Illustrator 16.0.0, SVG Export Plug-In . SVG Version: 6.00 Build 0)  -->
<!DOCTYPE svg PUBLIC "-//W3C//DTD SVG 1.1//EN" "http://www.w3.org/Graphics/SVG/1.1/DTD/svg11.dtd">
<svg version="1.1" id="entry" xmlns="http://www.w3.org/2000/svg" xmlns:xlink="http://www.w3.org/1999/xlink" x="0px" y="0px"
	 width="204.892px" height="366.13px" viewBox="0 0 204.892 366.13" enable-background="new 0 0 204.892 366.13"
	 xml:space="preserve">
<g>
	<polygon fill="#FBB041" points="107.237,60.14 97.655,60.14 53.624,9.516 151.268,9.516"/>
	<ellipse fill="#A8AAAD" cx="102.446" cy="9.11" rx="48.822" ry="9.11"/>
	<rect x="97.215" y="51.153" fill="#FBB041" width="10.461" height="31.006"/>
</g>
<g>
	<polygon fill="#FBB041" points="94.873,272.207 109.839,272.188 178.703,351.18 26.189,351.354 	"/>
	<ellipse transform="matrix(-1 0.0011 -0.0011 -1 205.2956 703.6848)" fill="#A8AAAD" cx="102.447" cy="351.901" rx="76.256" ry="14.23"/>
	<rect x="94.174" y="237.805" transform="matrix(-1 0.0011 -0.0011 -1 204.985 523.9217)" fill="#FBB041" width="16.339" height="48.429"/>
</g>
<rect x="29.772" y="95.257" transform="matrix(0.7047 0.7095 -0.7095 0.7047 149.082 -23.2306)" fill="#2C3A8C" width="145.349" height="144.418"/>
<g>
	<g>
		<g>
			<g>
				<path fill="#FFFFFF" d="M88.828,124.029c-8.074,0-15.717,1.863-22.531,5.178c-5.832,5.886-10.29,13.134-12.846,21.231h17.79
					c5.887-12.021,18.239-20.299,32.526-20.299c5.011,0,9.782,1.021,14.12,2.861C109.603,127.343,99.598,124.029,88.828,124.029z"/>
				<path fill="#FFFFFF" d="M103.767,113.58c-12.344,0-23.691,4.246-32.679,11.349c5.556-1.949,11.527-3.009,17.74-3.009
					c17.76,0,33.521,8.656,43.324,21.961c1.602,2.022,2.996,4.218,4.142,6.556h17.792
					C147.339,129.071,127.365,113.58,103.767,113.58z"/>
			</g>
			<g>
				<path fill="#FFFFFF" d="M118.708,208.572c8.073,0,15.718-1.863,22.531-5.178c5.833-5.886,10.292-13.134,12.848-21.231h-17.792
					c-5.888,12.021-18.238,20.298-32.525,20.298c-5.01,0-9.779-1.019-14.12-2.861C97.934,205.258,107.938,208.572,118.708,208.572z"
					/>
				<path fill="#FFFFFF" d="M103.769,219.021c12.345,0,23.694-4.246,32.68-11.35c-5.557,1.95-11.527,3.01-17.741,3.01
					c-17.76,0-33.521-8.657-43.323-21.962c-1.601-2.022-2.995-4.218-4.141-6.556H53.451
					C60.196,203.529,80.172,219.021,103.769,219.021z"/>
			</g>
		</g>
		<path fill="#FFFFFF" d="M49.64,162.615v-0.069c0-2.331-0.71-4.159-2.098-5.51c-1.587-1.625-4.09-2.571-7.708-2.571H28.637v23.672
			H35.2v-7.168h2.873l4.77,7.168h7.575l-5.647-8.252C47.71,168.635,49.64,166.233,49.64,162.615z M35.2,160.147h4.295
			c2.197,0,3.549,0.947,3.549,2.806v0.068c0,1.724-1.284,2.807-3.518,2.807H35.2V160.147z M59.446,172.556h12.717v5.581h-19.21
			v-23.672h19.04v5.579H59.446v3.586h11.362v5.172H59.446V172.556z M86.514,168.802H75.189v-5.145h9.433L86.514,168.802z
			 M100.881,178.309h-6.089l-9.603-23.844h7.336l5.379,14.982l5.377-14.982h7.205L100.881,178.309z M135.944,166.233
			c0-6.798-5.411-12.243-12.716-12.243c-7.301,0-12.782,5.512-12.782,12.31v0.067c0,6.799,5.411,12.243,12.715,12.243
			s12.783-5.513,12.783-12.311V166.233z M129.25,166.368c0,3.417-2.402,6.326-6.022,6.326c-3.584,0-6.053-2.976-6.053-6.393v-0.067
			c0-3.414,2.401-6.323,5.986-6.323c3.619,0,6.088,2.975,6.088,6.39V166.368z M155.65,172.387l2.601,5.75H139.36v-23.672h6.559
			v17.922H155.65z M168.357,178.309h-6.087l-9.605-23.844h7.337l5.378,14.982l5.377-14.982h7.204L168.357,178.309z"/>
	</g>
</g>
</svg>
