<?xml version="1.0" encoding="utf-8"?>
<!-- Generator: Adobe Illustrator 16.0.4, SVG Export Plug-In . SVG Version: 6.00 Build 0)  -->
<!DOCTYPE svg PUBLIC "-//W3C//DTD SVG 1.1//EN" "http://www.w3.org/Graphics/SVG/1.1/DTD/svg11.dtd">
<svg version="1.1" id="Capa_1" xmlns="http://www.w3.org/2000/svg" xmlns:xlink="http://www.w3.org/1999/xlink" x="0px" y="0px"
	 width="16.118px" height="16px" viewBox="0 0 16.118 16" enable-background="new 0 0 16.118 16" xml:space="preserve">
<g>
	<path d="M15.829,8.122l-7.5-6.5c-0.188-0.163-0.467-0.163-0.655,0L5,3.938V3c0-0.552-0.448-1-1-1S3,2.448,3,3v2.671L0.172,8.122
		c-0.208,0.181-0.231,0.497-0.05,0.706c0.182,0.208,0.497,0.23,0.706,0.05L8,2.662l7.172,6.216C15.267,8.96,15.383,9,15.5,9
		c0.14,0,0.278-0.059,0.377-0.172C16.059,8.619,16.036,8.304,15.829,8.122z"/>
	<path d="M8.633,5.227C8.45,5.076,8.225,5,8,5S7.55,5.076,7.366,5.227l-5,4.099C2.134,9.516,2,9.799,2,10.1V15c0,0.552,0.448,1,1,1
		h3v-5h4v5h3c0.551,0,1-0.448,1-1v-4.9c0-0.301-0.135-0.584-0.367-0.773L8.633,5.227z"/>
</g>
</svg>
