<?xml version="1.0" encoding="utf-8"?>
<!-- Generator: Adobe Illustrator 16.0.0, SVG Export Plug-In . SVG Version: 6.00 Build 0)  -->
<!DOCTYPE svg PUBLIC "-//W3C//DTD SVG 1.1//EN" "http://www.w3.org/Graphics/SVG/1.1/DTD/svg11.dtd">
<svg version="1.1" id="Layer_1" xmlns="http://www.w3.org/2000/svg" xmlns:xlink="http://www.w3.org/1999/xlink" x="0px" y="0px"
	 width="40.804px" height="31.087px" viewBox="0 0 40.804 31.087" enable-background="new 0 0 40.804 31.087" xml:space="preserve">
<g>
	<g>
		<g>
			<rect x="3.548" y="8.684" fill="#FBB041" width="33.708" height="22.403"/>
		</g>
		<g>
			<g>
				<path fill="#2E368F" d="M16.063,21.511c0-2.143-1.737-3.882-3.885-3.884c-2.142,0.002-3.88,1.741-3.88,3.884v9.576h7.765V21.511
					z"/>
			</g>
			<g>
				<rect x="27.955" y="17.629" fill="#FFFFFF" width="5.683" height="8.162"/>
			</g>
			<g>
				<rect x="20.721" y="17.629" fill="#FFFFFF" width="5.683" height="8.162"/>
			</g>
		</g>
	</g>
	<g>
		<polygon fill="#2E368F" points="36.3,0 4.507,0 0,10.888 40.804,10.89 		"/>
	</g>
	<g>
		<g>
			<polygon fill="#FFFFFF" points="6.138,1.79 5.976,2.221 34.538,2.221 34.364,1.79 			"/>
		</g>
		<g>
			<polygon fill="#FFFFFF" points="36.112,7.837 4.687,7.837 4.494,8.338 36.31,8.338 			"/>
		</g>
		<g>
			<polygon fill="#FFFFFF" points="35.447,5.798 5.306,5.798 5.115,6.299 35.649,6.299 			"/>
		</g>
		<g>
			<polygon fill="#FFFFFF" points="34.786,3.76 5.93,3.76 5.74,4.26 34.989,4.26 			"/>
		</g>
	</g>
</g>
</svg>
