<?xml version="1.0" encoding="utf-8"?>
<!-- Generator: Adobe Illustrator 16.0.0, SVG Export Plug-In . SVG Version: 6.00 Build 0)  -->
<!DOCTYPE svg PUBLIC "-//W3C//DTD SVG 1.1//EN" "http://www.w3.org/Graphics/SVG/1.1/DTD/svg11.dtd">
<svg version="1.1" id="Layer_1" xmlns="http://www.w3.org/2000/svg" xmlns:xlink="http://www.w3.org/1999/xlink" x="0px" y="0px"
	 width="129.782px" height="97.896px" viewBox="0 0 129.782 97.896" enable-background="new 0 0 129.782 97.896"
	 xml:space="preserve">
<g>
	<g>
		<g>
			<rect x="7.521" y="3.793" fill="#2E368F" width="114.741" height="83.858"/>
			<path fill="#1DB0E6" d="M78.012,87.651H52.038V60.543c0,0,4.332-3.646,12.875-3.646c8.199,0,13.099,3.646,13.099,3.646V87.651z"
				/>
			<path fill="#2E368F" d="M71.897,69.826c0-3.904-3.165-7.068-7.068-7.068c-3.902,0-7.066,3.164-7.066,7.068v14.525h14.135V69.826z
				"/>
			<rect x="14.31" y="31.105" fill="#FFFFFF" width="11.483" height="15.375"/>
			<rect x="28.935" y="31.154" fill="#FFFFFF" width="11.48" height="15.376"/>
			<rect x="43.562" y="31.139" fill="#FFFFFF" width="11.48" height="15.377"/>
			<rect x="58.17" y="31.154" fill="#FFFFFF" width="11.482" height="15.376"/>
			<rect x="72.812" y="31.154" fill="#FFFFFF" width="11.48" height="15.376"/>
			<rect x="87.439" y="31.174" fill="#FFFFFF" width="11.48" height="15.373"/>
			<rect x="102.05" y="31.139" fill="#FFFFFF" width="11.479" height="15.377"/>
			<rect x="87.538" y="56.621" fill="#FFFFFF" width="11.482" height="15.379"/>
			<rect x="102.146" y="56.59" fill="#FFFFFF" width="11.482" height="15.37"/>
			<rect x="14.36" y="56.32" fill="#FFFFFF" width="11.481" height="15.379"/>
			<rect x="28.971" y="56.289" fill="#FFFFFF" width="11.48" height="15.373"/>
			<g>
				<rect x="43.858" y="90.359" fill="#2E368F" width="43.133" height="2.697"/>
				<rect x="41.765" y="95.199" fill="#2E368F" width="47.322" height="2.697"/>
			</g>
		</g>
		<g>
			<polygon fill="#1DB0E6" points="124.993,0 4.79,0 0,22.963 129.782,22.963 			"/>
			<g>
				<polygon fill="#2E368F" points="37.852,10.564 49.968,10.564 50.181,5.064 38.315,5.064 				"/>
				<polygon fill="#2E368F" points="20.601,17.869 21.238,12.367 9.419,12.367 8.492,17.869 				"/>
				<polygon fill="#2E368F" points="9.726,10.564 21.446,10.564 22.09,5.064 10.652,5.064 				"/>
				<polygon fill="#2E368F" points="23.262,10.564 36.045,10.564 36.507,5.064 23.9,5.064 				"/>
				<polygon fill="#2E368F" points="80.267,10.564 92.385,10.564 91.921,5.064 80.056,5.064 				"/>
				<polygon fill="#2E368F" points="65.345,10.564 78.465,10.564 78.255,5.064 65.345,5.064 				"/>
				<polygon fill="#2E368F" points="106.335,5.064 93.729,5.064 94.191,10.564 106.975,10.564 				"/>
				<polygon fill="#2E368F" points="51.769,10.564 63.542,10.564 63.542,5.064 51.982,5.064 				"/>
				<polygon fill="#2E368F" points="120.366,12.367 108.996,12.367 109.636,17.869 121.293,17.869 				"/>
				<polygon fill="#2E368F" points="35.894,12.367 23.053,12.367 22.411,17.869 35.432,17.869 				"/>
				<polygon fill="#2E368F" points="107.184,12.367 94.34,12.367 94.804,17.869 107.823,17.869 				"/>
				<polygon fill="#2E368F" points="108.147,5.064 108.787,10.564 120.062,10.564 119.132,5.064 				"/>
				<polygon fill="#2E368F" points="92.535,12.367 80.335,12.367 80.545,17.869 92.997,17.869 				"/>
				<polygon fill="#2E368F" points="49.9,12.367 37.698,12.367 37.237,17.869 49.69,17.869 				"/>
				<polygon fill="#2E368F" points="78.534,12.367 65.345,12.367 65.345,17.869 78.744,17.869 				"/>
				<polygon fill="#2E368F" points="63.542,12.367 51.702,12.367 51.491,17.869 63.542,17.869 				"/>
			</g>
		</g>
	</g>
	<polygon fill="#2E368F" points="78.544,12.366 51.707,12.366 51.914,4.998 78.298,4.998 	"/>
</g>
</svg>
