<?xml version="1.0" encoding="utf-8"?>
<!-- Generator: Adobe Illustrator 16.0.0, SVG Export Plug-In . SVG Version: 6.00 Build 0)  -->
<!DOCTYPE svg PUBLIC "-//W3C//DTD SVG 1.1//EN" "http://www.w3.org/Graphics/SVG/1.1/DTD/svg11.dtd">
<svg version="1.1" id="Layer_1" xmlns="http://www.w3.org/2000/svg" xmlns:xlink="http://www.w3.org/1999/xlink" x="0px" y="0px"
	 width="59.334px" height="67.632px" viewBox="0 0 59.334 67.632" enable-background="new 0 0 59.334 67.632" xml:space="preserve">
<g>
	<path fill="#A8AAAD" d="M40.383,22.99v-8.695c-1.098-0.491-4.17-1.17-4.98-0.821c-9.953,4.322-15.636,1.729-15.636,1.729v8.172
		c0-0.002-0.004-0.004-0.004-0.004v0.175c0,2.302,0.762,4.418,2.035,6.136c1.885,2.538,4.891,4.191,8.293,4.191
		c3.436,0,6.473-1.686,8.346-4.267c1.242-1.704,1.98-3.795,1.98-6.061v-0.58C40.398,22.979,40.383,22.99,40.383,22.99z"/>
	<path fill="#2E368F" d="M30.4,0.267C26.134,1.69,16.414,1.25,16.615,11.59c0.111,5.516,1.697,10.816,3.146,11.78
		c0,0,0.004,0.002,0.004,0.004v-8.172c0,0,5.684,2.594,15.637-1.729c0.811-0.349,3.883,0.33,4.979,0.821v8.695
		c0,0,0.017-0.011,0.033-0.024c0.332-0.264,3.455-2.976,3.297-11.679C43.525,0.672,33.395-0.729,30.4,0.267z"/>
</g>
<path fill="#1DB0E6" d="M59.332,56.229h-0.006c-0.686-11.951-7.73-17.31-18.619-21.062c-2.178,2.993-6.719,4.874-10.703,4.874
	c-3.947,0-8.619-1.825-10.799-4.771C8.435,39.094,1.65,44.384,1,56.263h0.008L1.01,67.646l58.324-0.015L59.332,56.229z
	 M43.178,58.007l-4.764,2.635l-5.281-2.635l-0.055-4.26h10.1V58.007z M43.178,52.979H33.068l-0.025-1.966h10.135V52.979z"/>
<g>
	<path fill="#FFFFFF" d="M30.09,31.009c-1.453,0-2.882-0.502-4.02-1.414c-0.323-0.259-0.376-0.731-0.116-1.054
		c0.259-0.324,0.73-0.374,1.054-0.117c1.771,1.419,4.393,1.419,6.164,0c0.324-0.257,0.796-0.208,1.055,0.117
		c0.26,0.323,0.207,0.795-0.117,1.054C32.973,30.507,31.544,31.009,30.09,31.009z"/>
</g>
</svg>
