<?xml version="1.0" encoding="utf-8"?>
<!-- Generator: Adobe Illustrator 16.0.0, SVG Export Plug-In . SVG Version: 6.00 Build 0)  -->
<!DOCTYPE svg PUBLIC "-//W3C//DTD SVG 1.1//EN" "http://www.w3.org/Graphics/SVG/1.1/DTD/svg11.dtd">
<svg version="1.1" id="Layer_1" xmlns="http://www.w3.org/2000/svg" xmlns:xlink="http://www.w3.org/1999/xlink" x="0px" y="0px"
	 width="59.334px" height="67.632px" viewBox="0 0 59.334 67.632" enable-background="new 0 0 59.334 67.632" xml:space="preserve">
<g>
	<path fill="#2E368E" d="M43.467,29.74l0.056-15.335C43.55,6.646,37.289,0.341,29.537,0.311
		c-7.754-0.027-14.065,6.235-14.092,13.991l-0.058,15.331L43.467,29.74z"/>
	<path fill="#FAAF41" d="M20.197,14.868l-0.033,9.941c-0.018,5.227,4.199,9.477,9.431,9.497c5.223,0.021,9.476-4.202,9.497-9.427
		l0.033-9.947l-0.007-4.228L20.197,14.868z"/>
	<path fill="#2E368E" d="M41,12.732c0,0-0.27,6.1-20.834,4.29c-7.635-0.67,2.361-12.769,2.361-12.769l15.971,3.425L41,12.732z"/>
</g>
<path fill="#2E368E" d="M57.909,67.631V56.506h-0.011c-0.665-11.66-7.538-16.889-18.16-20.547
	c-2.005,2.023-2.234,1.947-10.733,7.233c-5.742-3.449-6.97-4.521-10.245-7.131C8.253,39.79,1.634,44.95,1,56.537h0.007v11.108
	L57.909,67.631z M29.093,48.34c1.284,0,2.325,1.042,2.325,2.323c0,1.284-1.041,2.323-2.325,2.323c-1.281,0-2.32-1.039-2.32-2.323
	C26.773,49.381,27.812,48.34,29.093,48.34z M29.093,57.964c1.284,0,2.325,1.038,2.325,2.319c0,1.288-1.041,2.326-2.325,2.326
	c-1.281,0-2.32-1.038-2.32-2.326C26.773,59.002,27.812,57.964,29.093,57.964z"/>
<g>
	<path fill="#FFFFFF" d="M27.673,20.627c-1.291-1.291-3.388-1.291-4.679,0c-0.272,0.272-0.272,0.713,0,0.985
		c0.274,0.272,0.713,0.272,0.987,0c0.744-0.747,1.96-0.747,2.707,0c0.272,0.272,0.713,0.272,0.985,0
		C27.945,21.34,27.945,20.899,27.673,20.627z"/>
	<path fill="#FFFFFF" d="M35.913,20.627c-1.291-1.291-3.388-1.291-4.678,0c-0.272,0.272-0.272,0.713,0,0.985
		c0.274,0.272,0.712,0.272,0.986,0c0.744-0.747,1.96-0.747,2.708,0c0.272,0.272,0.712,0.272,0.984,0
		C36.185,21.34,36.185,20.899,35.913,20.627z"/>
</g>
</svg>
