<?xml version="1.0" encoding="utf-8"?>
<!-- Generator: Adobe Illustrator 16.0.0, SVG Export Plug-In . SVG Version: 6.00 Build 0)  -->
<!DOCTYPE svg PUBLIC "-//W3C//DTD SVG 1.1//EN" "http://www.w3.org/Graphics/SVG/1.1/DTD/svg11.dtd">
<svg version="1.1" id="Layer_1" xmlns="http://www.w3.org/2000/svg" xmlns:xlink="http://www.w3.org/1999/xlink" x="0px" y="0px"
	 width="196.417px" height="77.543px" viewBox="0 0 196.417 77.543" enable-background="new 0 0 196.417 77.543"
	 xml:space="preserve">
<g>
	<g>
		<circle fill="#FBB041" cx="13.273" cy="13.271" r="13.273"/>
		<g>
			<path fill="#FFFFFF" d="M8.281,17.783l2.082-2.084c0.854,0.871,1.758,1.365,2.85,1.365c0.939,0,1.537-0.477,1.537-1.211V15.82
				c0-0.768-0.699-1.23-1.945-1.23h-1.398l-0.479-1.723l2.746-2.475H9.1V7.711h8.639v2.373l-2.852,2.441
				c1.707,0.375,3.09,1.332,3.09,3.363v0.033c0,2.426-1.947,3.977-4.609,3.977C11.062,19.898,9.441,19.062,8.281,17.783z"/>
			<g>
				<path fill="#FBB041" d="M31.857,7.62h5.1c3.009,0,4.946,1.547,4.946,4.182v0.033c0,2.805-2.158,4.284-5.116,4.284h-1.632v3.399
					h-3.298V7.62z M36.719,13.535c1.173,0,1.887-0.612,1.887-1.547v-0.034c0-1.02-0.714-1.563-1.903-1.563h-1.547v3.145
					L36.719,13.535L36.719,13.535z"/>
				<path fill="#FBB041" d="M46.562,7.535h3.179l5.066,11.983h-3.536l-0.867-2.125h-4.589l-0.851,2.125h-3.468L46.562,7.535z
					 M49.452,14.827l-1.326-3.383l-1.343,3.383H49.452z"/>
				<path fill="#FBB041" d="M57.94,15.065L53.419,7.62h3.757l2.447,4.334l2.465-4.334h3.689l-4.522,7.394v4.505H57.94V15.065z"/>
				<path fill="#FBB041" d="M71.575,7.62h3.314v11.898h-3.314V7.62z"/>
				<path fill="#FBB041" d="M79.812,10.51h-3.57V7.62H86.68v2.89h-3.57v9.009h-3.297L79.812,10.51L79.812,10.51z"/>
				<path fill="#FBB041" d="M92.833,7.62h9.52v2.89h-6.222v2.022h5.626v2.736h-5.626v4.25h-3.298V7.62z"/>
				<path fill="#FBB041" d="M103.306,13.604V13.57c0-3.417,2.754-6.188,6.426-6.188s6.393,2.736,6.393,6.153v0.034
					c0,3.416-2.754,6.188-6.428,6.188C106.024,19.757,103.306,17.02,103.306,13.604z M112.755,13.604V13.57
					c0-1.717-1.238-3.213-3.06-3.213c-1.803,0-3.01,1.462-3.01,3.179v0.034c0,1.717,1.242,3.213,3.043,3.213
					C111.548,16.782,112.755,15.32,112.755,13.604z"/>
				<path fill="#FBB041" d="M117.953,7.62h5.627c1.817,0,3.075,0.476,3.875,1.291c0.696,0.681,1.055,1.599,1.055,2.771v0.034
					c0,1.818-0.969,3.025-2.447,3.654l2.84,4.147h-3.809l-2.396-3.604h-1.443v3.604h-3.299L117.953,7.62L117.953,7.62z
					 M123.427,13.331c1.121,0,1.768-0.544,1.768-1.411v-0.033c0-0.936-0.68-1.411-1.783-1.411h-2.158v2.855H123.427z"/>
				<path fill="#FBB041" d="M129.08,7.62h3.483l2.074,6.884l2.295-6.918h2.84l2.293,6.918l2.074-6.884h3.418l-3.979,11.983h-2.873
					l-2.396-6.851l-2.379,6.851h-2.873L129.08,7.62z"/>
				<path fill="#FBB041" d="M151.944,7.535h3.179l5.065,11.983h-3.535l-0.866-2.125h-4.591l-0.85,2.125h-3.47L151.944,7.535z
					 M154.835,14.827l-1.326-3.383l-1.344,3.383H154.835z"/>
				<path fill="#FBB041" d="M161.397,7.62h5.627c1.817,0,3.076,0.476,3.875,1.291c0.697,0.681,1.056,1.599,1.056,2.771v0.034
					c0,1.818-0.97,3.025-2.447,3.654l2.84,4.147h-3.809l-2.396-3.604h-1.445v3.604H161.4V7.62H161.397z M166.873,13.331
					c1.121,0,1.768-0.544,1.768-1.411v-0.033c0-0.936-0.68-1.411-1.783-1.411h-2.16v2.855H166.873z"/>
				<path fill="#FBB041" d="M173.833,7.62h4.59c4.25,0,6.715,2.447,6.715,5.881v0.034c0,3.434-2.498,5.983-6.781,5.983h-4.521
					L173.833,7.62L173.833,7.62z M178.476,16.595c1.971,0,3.279-1.088,3.279-3.009v-0.034c0-1.903-1.31-3.008-3.279-3.008h-1.344
					v6.051H178.476z"/>
			</g>
		</g>
	</g>
	<rect x="30.834" y="36.085" fill="none" width="173" height="41.458"/>
	<text transform="matrix(1 0 0 1 30.8345 46.4043)" fill="#A8AAAD" font-family="'MyriadPro-Regular'" font-size="14">Reinvest returns into more </text>
	<text transform="matrix(1 0 0 1 30.8345 63.2031)" fill="#A8AAAD" font-family="'MyriadPro-Regular'" font-size="14">solar energy projects</text>
</g>
</svg>
