<?xml version="1.0" encoding="utf-8"?>
<!-- Generator: Adobe Illustrator 16.0.0, SVG Export Plug-In . SVG Version: 6.00 Build 0)  -->
<!DOCTYPE svg PUBLIC "-//W3C//DTD SVG 1.1//EN" "http://www.w3.org/Graphics/SVG/1.1/DTD/svg11.dtd">
<svg version="1.1" id="Layer_1" xmlns="http://www.w3.org/2000/svg" xmlns:xlink="http://www.w3.org/1999/xlink" x="0px" y="0px"
	 width="165.624px" height="79.924px" viewBox="0 0 165.624 79.924" enable-background="new 0 0 165.624 79.924"
	 xml:space="preserve">
<g>
	<circle fill="#2E368F" cx="14.271" cy="13.272" r="13.271"/>
	<g>
		<path fill="#FFFFFF" d="M13.178,10.401l-2.014,0.462l-0.633-2.562l3.5-0.989h2.406v12.032h-3.26v-8.943H13.178z"/>
		<g>
			<path fill="#2E368F" d="M33.014,7.376h9.578v2.907h-6.26v2.035h5.662v2.755h-5.662v4.276h-3.318V7.376z"/>
			<path fill="#2E368F" d="M44.152,14.099V7.376h3.369v6.653c0,1.729,0.873,2.55,2.207,2.55s2.207-0.786,2.207-2.464V7.376h3.369
				v6.638c0,3.865-2.205,5.559-5.609,5.559C46.291,19.573,44.152,17.845,44.152,14.099z"/>
			<path fill="#2E368F" d="M57.582,7.376h3.098l4.926,6.329V7.376h3.285V19.35h-2.91l-5.113-6.568v6.568h-3.285L57.582,7.376
				L57.582,7.376z"/>
			<path fill="#2E368F" d="M71.295,7.376h4.619c4.275,0,6.756,2.464,6.756,5.919v0.033c0,3.456-2.516,6.021-6.824,6.021h-4.551
				V7.376z M75.965,16.408c1.984,0,3.301-1.094,3.301-3.027v-0.035c0-1.916-1.316-3.027-3.301-3.027h-1.352v6.09L75.965,16.408
				L75.965,16.408z"/>
			<path fill="#2E368F" d="M84.492,7.376h5.662c1.828,0,3.096,0.479,3.898,1.301c0.701,0.684,1.061,1.606,1.061,2.788v0.034
				c0,1.829-0.975,3.045-2.463,3.677l2.857,4.174h-3.832l-2.412-3.626h-0.035H87.81v3.626h-3.318V7.376z M90,13.125
				c1.129,0,1.777-0.548,1.777-1.421V11.67c0-0.941-0.684-1.42-1.795-1.42H87.81v2.875H90z"/>
			<path fill="#2E368F" d="M101.385,7.291h3.199l5.099,12.059h-3.56l-0.871-2.138h-4.619l-0.854,2.138H96.29L101.385,7.291z
				 M104.293,14.629l-1.334-3.404l-1.353,3.404H104.293z"/>
			<path fill="#2E368F" d="M110.92,7.376h3.336V19.35h-3.336V7.376z"/>
			<path fill="#2E368F" d="M115.707,17.57l1.849-2.207c1.18,0.941,2.495,1.438,3.883,1.438c0.889,0,1.369-0.308,1.369-0.821v-0.034
				c0-0.497-0.396-0.771-2.021-1.146c-2.55-0.581-4.517-1.3-4.517-3.763v-0.035c0-2.223,1.763-3.831,4.636-3.831
				c2.034,0,3.627,0.548,4.928,1.591l-1.66,2.344c-1.094-0.77-2.291-1.18-3.353-1.18c-0.805,0-1.198,0.342-1.198,0.769v0.034
				c0,0.548,0.412,0.787,2.069,1.164c2.754,0.598,4.466,1.488,4.466,3.729v0.034c0,2.445-1.935,3.899-4.841,3.899
				C119.194,19.555,117.179,18.887,115.707,17.57z"/>
			<path fill="#2E368F" d="M127.955,7.376h9.631v2.822h-6.346v1.812h5.745v2.617h-5.745v1.898h6.432v2.822h-9.717V7.376z"/>
		</g>
	</g>
	<rect x="32.248" y="35.59" fill="none" width="163" height="44.334"/>
	<text transform="matrix(1 0 0 1 32.248 45.9082)" fill="#A8AAAD" font-family="'Lato-Regular'" font-size="14">Raise money through </text>
	<text transform="matrix(1 0 0 1 32.248 62.709)" fill="#A8AAAD" font-family="'Lato-Regular'" font-size="14">crowdfunding</text>
</g>
</svg>
