<?xml version="1.0" encoding="utf-8"?>
<!-- Generator: Adobe Illustrator 16.0.0, SVG Export Plug-In . SVG Version: 6.00 Build 0)  -->
<!DOCTYPE svg PUBLIC "-//W3C//DTD SVG 1.1//EN" "http://www.w3.org/Graphics/SVG/1.1/DTD/svg11.dtd">
<svg version="1.1" id="Layer_1" xmlns="http://www.w3.org/2000/svg" xmlns:xlink="http://www.w3.org/1999/xlink" x="0px" y="0px"
	 width="194.248px" height="79.924px" viewBox="0 0 194.248 79.924" enable-background="new 0 0 194.248 79.924"
	 xml:space="preserve">
<g>
	<g>
		<g>
			<circle fill="#1DB0E6" cx="14.273" cy="14.22" r="13.273"/>
			<g>
				<path fill="#FFFFFF" d="M9.459,17.248l4.471-3.413c1.109-0.869,1.537-1.435,1.537-2.151c0-0.752-0.529-1.212-1.332-1.212
					c-0.803,0-1.432,0.46-2.371,1.535l-2.238-1.86c1.281-1.655,2.545-2.56,4.865-2.56c2.611,0,4.404,1.552,4.404,3.806v0.033
					c0,1.912-0.99,2.904-2.766,4.184l-2.047,1.435h4.934v2.695H9.459V17.248z"/>
				<g>
					<path fill="#1DB0E6" d="M32.924,7.739h3.336v11.975h-3.336V7.739z"/>
					<path fill="#1DB0E6" d="M38.662,7.739h3.096l4.926,6.33v-6.33h3.283v11.975h-2.906l-5.115-6.568v6.568h-3.283L38.662,7.739
						L38.662,7.739z"/>
					<path fill="#1DB0E6" d="M51.172,7.739h3.711l2.721,7.578l2.719-7.578h3.645l-4.859,12.059h-3.078L51.172,7.739z"/>
					<path fill="#1DB0E6" d="M65.168,7.739h9.631v2.822h-6.346v1.814h5.746v2.617h-5.746v1.898h6.432v2.822h-9.717V7.739z"/>
					<path fill="#1DB0E6" d="M75.945,17.935l1.848-2.207c1.18,0.941,2.496,1.438,3.883,1.438c0.889,0,1.369-0.308,1.369-0.821V16.31
						c0-0.496-0.395-0.77-2.02-1.146c-2.549-0.58-4.516-1.299-4.516-3.762v-0.035c0-2.224,1.762-3.832,4.635-3.832
						c2.035,0,3.627,0.548,4.928,1.592l-1.66,2.344c-1.094-0.771-2.291-1.181-3.352-1.181c-0.805,0-1.199,0.342-1.199,0.769v0.035
						c0,0.547,0.412,0.787,2.07,1.163c2.754,0.599,4.465,1.488,4.465,3.729v0.034c0,2.445-1.934,3.9-4.84,3.9
						C79.434,19.919,77.416,19.251,75.945,17.935z"/>
					<path fill="#1DB0E6" d="M90.91,10.647h-3.592V7.739h10.501v2.908h-3.591v9.066H90.91V10.647z"/>
				</g>
			</g>
		</g>
		<rect x="31.992" y="36.081" fill="none" width="167.334" height="42.896"/>
		<text transform="matrix(1 0 0 1 31.9922 46.3984)" fill="#A8AAAD" font-family="'MyriadPro-Regular'" font-size="14">Invest in community-based</text>
		<text transform="matrix(1 0 0 1 193.0205 46.3984)" fill="#A8AAAD" font-family="'Lato-Regular'" font-size="14"> </text>
		<text transform="matrix(1 0 0 1 31.9922 63.1982)" fill="#A8AAAD" font-family="'MyriadPro-Regular'" font-size="14">solar energy projects</text>
	</g>
</g>
</svg>
