<?xml version="1.0" encoding="utf-8"?>
<!-- Generator: Adobe Illustrator 17.0.0, SVG Export Plug-In . SVG Version: 6.00 Build 0)  -->
<!DOCTYPE svg PUBLIC "-//W3C//DTD SVG 1.1//EN" "http://www.w3.org/Graphics/SVG/1.1/DTD/svg11.dtd">
<svg version="1.1" id="Layer_1" xmlns="http://www.w3.org/2000/svg" xmlns:xlink="http://www.w3.org/1999/xlink" x="0px" y="0px"
	 width="100px" height="100px" viewBox="0 0 100 100" enable-background="new 0 0 100 100" xml:space="preserve">
<g>
	<g>
		<g>
			<defs>
				<rect id="SVGID_1_" x="-4" y="9" width="41" height="15"/>
			</defs>
			<clipPath id="SVGID_2_">
				<use xlink:href="#SVGID_1_"  overflow="visible"/>
			</clipPath>
			<polygon clip-path="url(#SVGID_2_)" fill="#0CA336" points="14.115,12.376 3.869,25.341 14.115,38.305 24.36,25.341 			"/>
		</g>
		<g>
			<defs>
				<rect id="SVGID_3_" x="-9" y="10" width="51" height="21"/>
			</defs>
			<clipPath id="SVGID_4_">
				<use xlink:href="#SVGID_3_"  overflow="visible"/>
			</clipPath>
			<polygon clip-path="url(#SVGID_4_)" fill="#0CA336" points="14.201,14.715 1.75,32.626 14.201,50.538 26.651,32.626 			"/>
		</g>
		<g>
			<defs>
				<rect id="SVGID_5_" x="-11" y="17" width="57" height="19"/>
			</defs>
			<clipPath id="SVGID_6_">
				<use xlink:href="#SVGID_5_"  overflow="visible"/>
			</clipPath>
			<polygon clip-path="url(#SVGID_6_)" fill="#0CA336" points="14.356,20.826 0.201,38.738 14.356,56.65 28.511,38.738 			"/>
		</g>
		<rect x="11" y="36" fill="#684A4C" width="7" height="8"/>
	</g>
	<g>
		<g>
			<defs>
				<rect id="SVGID_7_" x="31" y="9" width="39" height="15"/>
			</defs>
			<clipPath id="SVGID_8_">
				<use xlink:href="#SVGID_7_"  overflow="visible"/>
			</clipPath>
			<polygon clip-path="url(#SVGID_8_)" fill="#0CA336" points="48.34,12.376 38.094,25.341 48.34,38.305 58.585,25.341 			"/>
		</g>
		<g>
			<defs>
				<rect id="SVGID_9_" x="26" y="10" width="51" height="21"/>
			</defs>
			<clipPath id="SVGID_10_">
				<use xlink:href="#SVGID_9_"  overflow="visible"/>
			</clipPath>
			<polygon clip-path="url(#SVGID_10_)" fill="#0CA336" points="48.426,14.715 35.975,32.626 48.426,50.538 60.877,32.626 			"/>
		</g>
		<g>
			<defs>
				<rect id="SVGID_11_" x="23" y="17" width="58" height="19"/>
			</defs>
			<clipPath id="SVGID_12_">
				<use xlink:href="#SVGID_11_"  overflow="visible"/>
			</clipPath>
			<polygon clip-path="url(#SVGID_12_)" fill="#0CA336" points="48.581,20.826 34.426,38.738 48.581,56.65 62.736,38.738 			"/>
		</g>
		<rect x="44" y="36" fill="#684A4C" width="9" height="8"/>
	</g>
	<g>
		<g>
			<defs>
				<rect id="SVGID_13_" x="67" y="9" width="40" height="15"/>
			</defs>
			<clipPath id="SVGID_14_">
				<use xlink:href="#SVGID_13_"  overflow="visible"/>
			</clipPath>
			<polygon clip-path="url(#SVGID_14_)" fill="#0CA336" points="85.009,12.376 74.764,25.341 85.009,38.305 95.255,25.341 			"/>
		</g>
		<g>
			<defs>
				<rect id="SVGID_15_" x="63" y="10" width="51" height="21"/>
			</defs>
			<clipPath id="SVGID_16_">
				<use xlink:href="#SVGID_15_"  overflow="visible"/>
			</clipPath>
			<polygon clip-path="url(#SVGID_16_)" fill="#0CA336" points="85.096,14.715 72.645,32.626 85.096,50.538 97.546,32.626 			"/>
		</g>
		<g>
			<defs>
				<rect id="SVGID_17_" x="60" y="17" width="57" height="19"/>
			</defs>
			<clipPath id="SVGID_18_">
				<use xlink:href="#SVGID_17_"  overflow="visible"/>
			</clipPath>
			<polygon clip-path="url(#SVGID_18_)" fill="#0CA336" points="85.251,20.826 71.096,38.738 85.251,56.65 99.406,38.738 			"/>
		</g>
		<rect x="82" y="36" fill="#684A4C" width="7" height="8"/>
	</g>
	<g>
		<g>
			<defs>
				<rect id="SVGID_19_" x="-2" y="50" width="40" height="14"/>
			</defs>
			<clipPath id="SVGID_20_">
				<use xlink:href="#SVGID_19_"  overflow="visible"/>
			</clipPath>
			<polygon clip-path="url(#SVGID_20_)" fill="#0CA336" points="15.337,52.713 5.092,65.677 15.337,78.642 25.582,65.677 			"/>
		</g>
		<g>
			<defs>
				<rect id="SVGID_21_" x="-8" y="51" width="51" height="20"/>
			</defs>
			<clipPath id="SVGID_22_">
				<use xlink:href="#SVGID_21_"  overflow="visible"/>
			</clipPath>
			<polygon clip-path="url(#SVGID_22_)" fill="#0CA336" points="15.423,55.051 2.973,72.963 15.423,90.875 27.874,72.963 			"/>
		</g>
		<g>
			<defs>
				<rect id="SVGID_23_" x="-10" y="57" width="58" height="20"/>
			</defs>
			<clipPath id="SVGID_24_">
				<use xlink:href="#SVGID_23_"  overflow="visible"/>
			</clipPath>
			<polygon clip-path="url(#SVGID_24_)" fill="#0CA336" points="15.579,61.163 1.424,79.075 15.579,96.987 29.734,79.075 			"/>
		</g>
		<rect x="12" y="77" fill="#684A4C" width="7" height="7"/>
	</g>
	<g>
		<g>
			<defs>
				<rect id="SVGID_25_" x="32" y="50" width="39" height="14"/>
			</defs>
			<clipPath id="SVGID_26_">
				<use xlink:href="#SVGID_25_"  overflow="visible"/>
			</clipPath>
			<polygon clip-path="url(#SVGID_26_)" fill="#0CA336" points="49.562,52.713 39.317,65.677 49.562,78.642 59.807,65.677 			"/>
		</g>
		<g>
			<defs>
				<rect id="SVGID_27_" x="27" y="51" width="52" height="20"/>
			</defs>
			<clipPath id="SVGID_28_">
				<use xlink:href="#SVGID_27_"  overflow="visible"/>
			</clipPath>
			<polygon clip-path="url(#SVGID_28_)" fill="#0CA336" points="49.648,55.051 37.198,72.963 49.648,90.875 62.099,72.963 			"/>
		</g>
		<g>
			<defs>
				<rect id="SVGID_29_" x="24" y="57" width="58" height="20"/>
			</defs>
			<clipPath id="SVGID_30_">
				<use xlink:href="#SVGID_29_"  overflow="visible"/>
			</clipPath>
			<polygon clip-path="url(#SVGID_30_)" fill="#0CA336" points="49.804,61.163 35.649,79.075 49.804,96.987 63.959,79.075 			"/>
		</g>
		<rect x="46" y="77" fill="#684A4C" width="8" height="7"/>
	</g>
	<g>
		<g>
			<defs>
				<rect id="SVGID_31_" x="68" y="50" width="40" height="14"/>
			</defs>
			<clipPath id="SVGID_32_">
				<use xlink:href="#SVGID_31_"  overflow="visible"/>
			</clipPath>
			<polygon clip-path="url(#SVGID_32_)" fill="#0CA336" points="86.232,52.713 75.986,65.677 86.232,78.642 96.477,65.677 			"/>
		</g>
		<g>
			<defs>
				<rect id="SVGID_33_" x="64" y="51" width="51" height="20"/>
			</defs>
			<clipPath id="SVGID_34_">
				<use xlink:href="#SVGID_33_"  overflow="visible"/>
			</clipPath>
			<polygon clip-path="url(#SVGID_34_)" fill="#0CA336" points="86.318,55.051 73.868,72.963 86.318,90.875 98.769,72.963 			"/>
		</g>
		<g>
			<defs>
				<rect id="SVGID_35_" x="61" y="57" width="57" height="20"/>
			</defs>
			<clipPath id="SVGID_36_">
				<use xlink:href="#SVGID_35_"  overflow="visible"/>
			</clipPath>
			<polygon clip-path="url(#SVGID_36_)" fill="#0CA336" points="86.474,61.163 72.319,79.075 86.474,96.987 100.629,79.075 			"/>
		</g>
		<rect x="83" y="77" fill="#684A4C" width="7" height="7"/>
	</g>
</g>
</svg>
